<svg width="97" height="122" viewBox="0 0 97 122" fill="none" xmlns="http://www.w3.org/2000/svg">
<path fill-rule="evenodd" clip-rule="evenodd" d="M47.5031 0.399994C38.4234 0.399994 30.6232 3.28033 25.3033 9.85556C20.2049 16.156 18.1576 24.9197 18.1576 35.1554C18.1576 56.6819 32.4293 71.3879 47.5031 71.3879C62.5721 71.3879 76.8487 56.6819 76.8487 35.1554C76.8487 24.9246 74.8014 16.1609 69.703 9.86047C64.388 3.28524 56.5829 0.399994 47.5031 0.399994ZM0.854439 110.437C2.94598 112.998 12.6163 121.6 48.3939 121.6C84.1715 121.6 93.8467 112.998 95.9333 110.437C96.1088 110.218 96.2391 109.966 96.3168 109.697C96.3945 109.427 96.418 109.145 96.3861 108.867C95.9383 103.989 91.5436 80.0436 48.3939 80.0436C5.24913 80.0436 0.854438 103.989 0.411524 108.867C0.35739 109.441 0.490265 109.99 0.854439 110.437Z" fill="white" fill-opacity="0.6"/>
</svg>
