<svg width="34" height="34" viewBox="0 0 34 34" fill="none" xmlns="http://www.w3.org/2000/svg">
<rect width="34" height="34" rx="17" fill="#D9D9D9" fill-opacity="0.5"/>
<path fill-rule="evenodd" clip-rule="evenodd" d="M16.3599 7C14.9412 7 13.7224 7.45137 12.8912 8.48176C12.0945 9.46909 11.7746 10.8424 11.7746 12.4465C11.7746 15.8198 14.0046 18.1244 16.3599 18.1244C18.7144 18.1244 20.9451 15.8198 20.9451 12.4465C20.9451 10.8432 20.6252 9.46986 19.8286 8.48253C18.9981 7.45214 17.7786 7 16.3599 7ZM9.07102 24.2437C9.39782 24.6451 10.9088 25.993 16.4991 25.993C22.0893 25.993 23.6011 24.6451 23.9271 24.2437C23.9545 24.2093 23.9749 24.1699 23.987 24.1277C23.9991 24.0855 24.0028 24.0413 23.9978 23.9976C23.9279 23.2333 23.2412 19.4808 16.4991 19.4808C9.75769 19.4808 9.07102 23.2333 9.00182 23.9976C8.99336 24.0876 9.01412 24.1737 9.07102 24.2437Z" fill="white" fill-opacity="0.6"/>
</svg>
