<svg fill="#b4b4b4" width="24" height="24" viewBox="0 0 24 24" xmlns="http://www.w3.org/2000/svg">
<path fill-rule="evenodd" clip-rule="evenodd" d="M7.06693 3.99402H16.9329C16.9959 3.99402 17.0999 3.99402 17.1949 4.00102C17.3119 4.01002 17.5119 4.03502 17.7279 4.13602C17.9939 4.26102 18.2099 4.46102 18.3459 4.70602C18.4559 4.90602 18.4829 5.09002 18.4919 5.19802C18.4999 5.28602 18.4999 5.38102 18.4999 5.43902V18.661C18.4999 18.718 18.4999 18.82 18.4909 18.911V18.914C18.4829 18.992 18.4539 19.294 18.2089 19.568C18.0785 19.7098 17.9186 19.8213 17.7405 19.8947C17.5624 19.9682 17.3704 20.0017 17.1779 19.993C16.9207 19.9824 16.672 19.8984 16.4609 19.751L16.4579 19.749C16.3867 19.6987 16.3176 19.6453 16.2509 19.589L16.2389 19.579L13.3569 17.2C13.0894 16.9721 12.8143 16.7533 12.5319 16.544C12.3469 16.414 12.2719 16.389 12.2439 16.381C12.0843 16.3368 11.9156 16.3368 11.7559 16.381C11.7279 16.389 11.6529 16.414 11.4679 16.544C11.2719 16.683 11.0299 16.881 10.6429 17.2L7.76093 19.58L7.74893 19.59C7.68224 19.6463 7.61318 19.6997 7.54193 19.75L7.53893 19.752C7.32789 19.8994 7.07912 19.9834 6.82193 19.994C6.62965 20.0026 6.43782 19.9689 6.25989 19.8955C6.08197 19.8221 5.92225 19.7107 5.79193 19.569C5.54593 19.295 5.51693 18.993 5.50893 18.915V18.911C5.49893 18.821 5.49893 18.719 5.49993 18.662V5.44002C5.49993 5.38202 5.49993 5.28702 5.50793 5.19902C5.51793 5.09102 5.54393 4.90602 5.65393 4.70702C5.78993 4.46202 6.00593 4.26202 6.27193 4.13702C6.48793 4.03602 6.68793 4.01102 6.80493 4.00202C6.89993 3.99502 7.00393 3.99502 7.06693 3.99502V3.99402Z" />
</svg>
