<svg width="17" height="18" viewBox="0 0 17 18" fill="none" xmlns="http://www.w3.org/2000/svg">
<path fill-rule="evenodd" clip-rule="evenodd" d="M12.944 3.10958C12.877 2.97335 12.9035 2.77457 12.9565 2.37703L13.2482 0.189351C13.2573 0.121091 13.3066 0.0650213 13.3731 0.0471913C14.1066 -0.149349 14.8606 0.285951 15.0571 1.01947L15.3159 1.98539L15.3353 2.05784H15.3354C15.4078 2.32832 15.4441 2.46356 15.4191 2.58098C15.3972 2.68426 15.3431 2.77794 15.2646 2.8486C15.1754 2.92892 15.0401 2.96516 14.7697 3.03763L14.6972 3.05704L13.9566 3.2555C13.5692 3.3593 13.3755 3.4112 13.2317 3.36234C13.1061 3.31961 13.0026 3.22868 12.944 3.10958ZM11.2864 1.02357C11.3533 1.1598 11.3268 1.35858 11.2738 1.75612L11.0376 3.52762C11.0121 3.71876 10.9994 3.81434 10.9578 3.89319C10.921 3.96288 10.8683 4.02289 10.8039 4.06834C10.7311 4.11976 10.638 4.14472 10.4517 4.19463L10.3269 4.22807C9.9395 4.33187 9.7458 4.38377 9.6021 4.3349C9.4764 4.29218 9.3729 4.20125 9.3143 4.08214C9.2473 3.94591 9.2739 3.74714 9.3269 3.3496L9.5631 1.5781C9.5885 1.38696 9.6013 1.29138 9.6429 1.21253C9.6797 1.14284 9.7324 1.08282 9.7967 1.03738C9.8696 0.985961 9.9627 0.961001 10.149 0.911091L10.2738 0.877651C10.6612 0.773851 10.8549 0.721951 10.9986 0.770811C11.1243 0.813541 11.2278 0.904471 11.2864 1.02357ZM5.93338 2.55067L5.69718 4.32217V4.32218C5.64418 4.71971 5.61767 4.91848 5.68466 5.05471C5.74322 5.17382 5.84674 5.26475 5.9724 5.30747C6.1161 5.35634 6.3098 5.30444 6.6972 5.20064L6.822 5.16719C7.0083 5.11728 7.1014 5.09233 7.1743 5.04091C7.2386 4.99546 7.2914 4.93545 7.3281 4.86576C7.3697 4.7869 7.3825 4.69133 7.408 4.50018L7.6442 2.72869C7.6972 2.33114 7.7237 2.13237 7.6567 1.99614C7.5981 1.87704 7.4946 1.78611 7.3689 1.74338C7.2252 1.69451 7.0315 1.74642 6.6441 1.85022L6.5193 1.88366C6.333 1.93357 6.2399 1.95853 6.1671 2.00995C6.1027 2.05539 6.05 2.1154 6.0132 2.18509C5.97161 2.26395 5.95887 2.35952 5.93338 2.55067ZM4.02701 2.96871C4.09399 3.10494 4.06749 3.30371 4.01448 3.70126L3.77828 5.47275C3.7528 5.6639 3.74006 5.75947 3.69845 5.83833C3.66168 5.90802 3.60896 5.96803 3.5446 6.01347C3.47176 6.0649 3.37862 6.08985 3.19236 6.13976L2.47002 6.33331H13.9031C14.162 6.33328 14.4069 6.33326 14.613 6.35023C14.8374 6.36869 15.0929 6.41163 15.3477 6.54243C15.7061 6.72637 15.9975 7.01986 16.1801 7.38086C16.31 7.63756 16.3526 7.89486 16.3709 8.12086C16.3878 8.32846 16.3878 8.57516 16.3877 8.83596V13.199V13.1991C16.3877 13.742 16.3878 14.2027 16.3571 14.5806C16.3249 14.9773 16.2546 15.3609 16.0694 15.7271C15.7894 16.2806 15.3426 16.7307 14.793 17.0127C14.4295 17.1993 14.0486 17.2701 13.6549 17.3025C13.2796 17.3334 12.8222 17.3334 12.2832 17.3333H4.49225C3.95327 17.3334 3.49584 17.3334 3.12058 17.3025C2.72682 17.2701 2.34593 17.1993 1.98243 17.0127C1.43287 16.7307 0.986071 16.2806 0.706061 15.7271C0.520851 15.3609 0.450541 14.9773 0.418361 14.5806C0.387701 14.2026 0.387721 13.7419 0.387731 13.199V6.33331H0.396421C0.375041 6.2649 0.352821 6.18198 0.325421 6.07973L0.306011 6.00729L0.0471913 5.04136C-0.149349 4.30785 0.285951 3.55389 1.01946 3.35734L3.01445 2.82279C3.40184 2.71898 3.59554 2.66708 3.73927 2.71595C3.86493 2.75868 3.96844 2.84961 4.02701 2.96871ZM13.8734 8.12396C14.1726 8.12396 14.3435 8.12466 14.4683 8.13496C14.5135 8.13866 14.5401 8.14296 14.5535 8.14556C14.5674 8.15486 14.5793 8.16686 14.5886 8.18086C14.5911 8.19436 14.5954 8.22116 14.5991 8.26666C14.6093 8.39246 14.61 8.56456 14.61 8.86586V13.1636C14.61 13.7514 14.6093 14.1385 14.5852 14.4348C14.562 14.7207 14.5216 14.8425 14.4854 14.9141C14.3758 15.1307 14.201 15.3068 13.9859 15.4172C13.9148 15.4537 13.7939 15.4944 13.5101 15.5177C13.2159 15.542 12.8317 15.5427 12.248 15.5427H4.52741C3.9438 15.5427 3.55956 15.542 3.26535 15.5177C2.98152 15.4944 2.86063 15.4537 2.78952 15.4172C2.57448 15.3068 2.39964 15.1307 2.29007 14.9141C2.25384 14.8425 2.21343 14.7207 2.19024 14.4348C2.1662 14.1385 2.16551 13.7514 2.16551 13.1636V8.12396H13.8734Z" fill="black"/>
</svg>
