<svg fill="#b4b4b4" width="18" height="18" viewBox="0 0 18 18" xmlns="http://www.w3.org/2000/svg">
<path fill-rule="evenodd" clip-rule="evenodd" d="M5.995 10.3C6.5353 10.2998 7.06323 10.4617 7.51052 10.7648C7.95781 11.0678 8.30389 11.4981 8.504 12H17V14H8.504C8.30429 14.5023 7.95838 14.9332 7.51106 15.2367C7.06373 15.5403 6.53559 15.7025 5.995 15.7025C5.45441 15.7025 4.92627 15.5403 4.47894 15.2367C4.03162 14.9332 3.68571 14.5023 3.486 14H1V12H3.486C3.68611 11.4981 4.03219 11.0678 4.47948 10.7648C4.92677 10.4617 5.4547 10.2998 5.995 10.3ZM5.995 12C5.72978 12 5.47543 12.1053 5.28789 12.2929C5.10036 12.4804 4.995 12.7348 4.995 13C4.995 13.2652 5.10036 13.5196 5.28789 13.7071C5.47543 13.8946 5.72978 14 5.995 14C6.26022 14 6.51457 13.8946 6.70211 13.7071C6.88964 13.5196 6.995 13.2652 6.995 13C6.995 12.7348 6.88964 12.4804 6.70211 12.2929C6.51457 12.1053 6.26022 12 5.995 12ZM11.992 3.29999C12.5321 3.29999 13.0598 3.46198 13.5069 3.76503C13.954 4.06809 14.3 4.49827 14.5 4.99999H17V6.99999H14.5C14.3001 7.50202 13.9542 7.93253 13.507 8.23584C13.0598 8.53914 12.5319 8.70128 11.9915 8.70128C11.4511 8.70128 10.9232 8.53914 10.476 8.23584C10.0288 7.93253 9.68288 7.50202 9.483 6.99999H1V4.99999H9.483C9.68311 4.49812 10.0292 4.06782 10.4765 3.76475C10.9238 3.46169 11.4517 3.29979 11.992 3.29999ZM11.992 4.99999C11.7268 4.99999 11.4724 5.10535 11.2849 5.29288C11.0974 5.48042 10.992 5.73477 10.992 5.99999C10.992 6.2652 11.0974 6.51956 11.2849 6.70709C11.4724 6.89463 11.7268 6.99999 11.992 6.99999C12.2572 6.99999 12.5116 6.89463 12.6991 6.70709C12.8866 6.51956 12.992 6.2652 12.992 5.99999C12.992 5.73477 12.8866 5.48042 12.6991 5.29288C12.5116 5.10535 12.2572 4.99999 11.992 4.99999Z" />
</svg>
