<svg fill="#b4b4b4" width="18" height="18" viewBox="0 0 18 18" xmlns="http://www.w3.org/2000/svg">
<path fill-rule="evenodd" clip-rule="evenodd" d="M12.0261 10.626L16.0001 14.6L14.6001 16L10.6261 12.026C9.49661 12.8061 8.11628 13.1356 6.75625 12.9498C5.39623 12.7641 4.15481 12.0765 3.27588 11.0222C2.39695 9.96782 1.94404 8.62292 2.00612 7.25167C2.0682 5.88043 2.64079 4.58195 3.61141 3.61134C4.58202 2.64073 5.88049 2.06814 7.25173 2.00606C8.62298 1.94398 9.96788 2.39689 11.0222 3.27582C12.0766 4.15475 12.7642 5.39617 12.9499 6.75619C13.1356 8.11622 12.8061 9.49654 12.0261 10.626ZM7.50006 11.1C8.45484 11.1 9.37052 10.7207 10.0456 10.0456C10.7208 9.37046 11.1001 8.45478 11.1001 7.5C11.1001 6.54522 10.7208 5.62955 10.0456 4.95442C9.37052 4.27929 8.45484 3.9 7.50006 3.9C6.54529 3.9 5.62961 4.27929 4.95448 4.95442C4.27935 5.62955 3.90006 6.54522 3.90006 7.5C3.90006 8.45478 4.27935 9.37046 4.95448 10.0456C5.62961 10.7207 6.54529 11.1 7.50006 11.1Z" />
</svg>
