<svg width="19" height="15" viewBox="0 0 19 15" fill="none" xmlns="http://www.w3.org/2000/svg">
<path d="M16.2859 3.39285H11.5359V4.75H16.2859V3.39285Z" fill="black"/>
<path d="M16.2859 6.78571H11.5359V8.14285H16.2859V6.78571Z" fill="black"/>
<path d="M16.2859 10.1786H11.5359V11.5357H16.2859V10.1786Z" fill="black"/>
<path d="M7.46436 3.39285H2.71436V4.75H7.46436V3.39285Z" fill="black"/>
<path d="M7.46436 6.78571H2.71436V8.14285H7.46436V6.78571Z" fill="black"/>
<path d="M7.46436 10.1786H2.71436V11.5357H7.46436V10.1786Z" fill="black"/>
<path d="M17.6429 0H1.35714C0.997316 0.000359288 0.652331 0.143459 0.397895 0.397895C0.143459 0.652331 0.000359288 0.997317 0 1.35714V13.5714C0.000359288 13.9313 0.143459 14.2762 0.397895 14.5307C0.652331 14.7851 0.997316 14.9282 1.35714 14.9286H17.6429C18.0027 14.9282 18.3477 14.7851 18.6021 14.5307C18.8565 14.2762 18.9996 13.9313 19 13.5714V1.35714C18.9996 0.997317 18.8565 0.652331 18.6021 0.397895C18.3477 0.143459 18.0027 0.000359288 17.6429 0ZM1.35714 1.35714H8.82143V13.5714H1.35714V1.35714ZM10.1786 13.5714V1.35714H17.6429V13.5714H10.1786Z" fill="black"/>
</svg>
