<svg width="18" height="16" viewBox="0 0 18 16" fill="none" xmlns="http://www.w3.org/2000/svg">
<path fill-rule="evenodd" clip-rule="evenodd" d="M14.3002 11.7512C14.2985 12.0071 14.293 12.2562 14.275 12.4789C14.2462 12.8373 14.1768 13.2785 13.9516 13.7268C13.6443 14.3383 13.1539 14.8356 12.5508 15.1472C12.1087 15.3756 11.6736 15.4459 11.3201 15.4752C11.0018 15.5015 10.6289 15.5015 10.2599 15.5014H4.04109C3.6721 15.5015 3.29914 15.5015 2.98081 15.4752C2.62738 15.4459 2.19228 15.3756 1.75018 15.1472C1.14705 14.8356 0.656686 14.3383 0.349376 13.7268C0.124116 13.2785 0.0547656 12.8373 0.0258956 12.4789C-0.000114368 12.1562 -5.42423e-05 11.778 5.75771e-06 11.4038V7.84826C-5.42423e-05 7.47406 -0.000114368 7.09596 0.0258956 6.77316C0.0547656 6.41476 0.124116 5.97358 0.349376 5.5253C0.656686 4.91373 1.14705 4.41652 1.75018 4.10491C2.19228 3.8765 2.62738 3.80619 2.98081 3.77691C3.20046 3.75871 3.44611 3.7531 3.69853 3.75139V3.69183C3.69853 3.66293 3.69843 3.63277 3.69832 3.60149C3.69731 3.2961 3.69595 2.88465 3.78367 2.50649C4.06207 1.30623 4.98632 0.369062 6.17003 0.0867619C6.54297 -0.0021781 6.94875 -0.000798068 7.2499 0.000231932C7.2808 0.000331932 7.3105 0.000431965 7.339 0.000431965H13.175C13.6777 0.000381965 14.1533 0.000332039 14.5535 0.033492C14.9892 0.069592 15.4852 0.153522 15.98 0.409182C16.6759 0.768732 17.2417 1.34244 17.5963 2.04809C17.8485 2.54985 17.9312 3.05279 17.9668 3.49454C17.9995 3.90039 17.9995 4.38263 17.9995 4.89231L17.9994 8.00096C17.9994 8.03336 17.9996 8.06726 17.9997 8.10246C18.001 8.44846 18.0028 8.91636 17.8902 9.34216C17.5938 10.4638 16.7298 11.3399 15.6237 11.6404C15.2037 11.7545 14.7432 11.7528 14.4018 11.7515C14.3669 11.7513 14.3325 11.7512 14.3002 11.7512ZM14.3009 10.0011C14.7595 10.0011 14.9888 10.0011 15.177 9.94996C15.5305 9.85386 15.8304 9.63046 16.0269 9.33016C16.1142 9.19686 16.181 9.04836 16.2231 8.88916C16.2735 8.69846 16.2735 8.46596 16.2735 8.00096V4.95073C16.2735 3.83056 16.2735 3.27047 16.0585 2.84262C15.8694 2.46628 15.5676 2.1603 15.1964 1.96854C14.7745 1.75054 14.2221 1.75054 13.1174 1.75054H7.339C6.93452 1.75054 6.73227 1.75054 6.56519 1.79038C6.42876 1.82292 6.2998 1.87431 6.18108 1.94173C5.8244 2.14428 5.5602 2.49155 5.46379 2.90718C5.4245 3.07659 5.4245 3.28167 5.4245 3.69183H10.7504C11.9932 3.69183 12.6146 3.69183 13.0893 3.93708C13.5068 4.15281 13.8463 4.49704 14.0591 4.92043C14.3009 5.40176 14.3009 6.03186 14.3009 7.29206V8.13536C14.3009 8.17186 14.3009 8.20846 14.3009 8.24516V10.0011ZM12.575 8.30096C12.575 7.32076 12.575 6.83066 12.3868 6.45636C12.2214 6.12706 11.9573 5.85931 11.6326 5.69152C11.2634 5.50077 10.78 5.50077 9.8134 5.50077H4.09303C3.26449 5.50077 2.85022 5.50077 2.53375 5.66427C2.25539 5.80809 2.02907 6.03756 1.88723 6.31986C1.72598 6.64076 1.72598 7.06076 1.72598 7.90096V11.3512C1.72598 12.1913 1.72598 12.6114 1.88723 12.9322C2.02907 13.2145 2.25539 13.444 2.53375 13.5878C2.85022 13.7513 3.26449 13.7513 4.09303 13.7513H10.2079C11.0365 13.7513 11.4507 13.7513 11.7672 13.5878C12.0456 13.444 12.2719 13.2145 12.4137 12.9322C12.575 12.6114 12.575 12.1913 12.575 11.3512V8.30096Z" fill="black"/>
</svg>
