<svg width="13" height="17" viewBox="0 0 13 17" fill="none" xmlns="http://www.w3.org/2000/svg">
<path d="M11.9959 1.28705L11.9958 1.28705L11.9965 1.29454C11.9978 1.30847 11.999 1.3302 11.9997 1.35955C12.0004 1.38826 12.0004 1.41563 12.0004 1.445V14.667C12.0004 14.6957 12.0004 14.7239 11.9996 14.7537C11.9988 14.7847 11.9975 14.8064 11.9963 14.8186L11.9942 14.8393C11.994 14.8406 11.9938 14.8418 11.9936 14.8431C11.9926 14.8489 11.9909 14.8562 11.9883 14.8641C11.9838 14.8782 11.9775 14.891 11.9676 14.9032C11.9371 14.9346 11.9005 14.9595 11.8599 14.9762C11.8167 14.994 11.7702 15.0021 11.7235 15L11.7196 14.9999C11.6531 14.9971 11.5887 14.9754 11.5341 14.9372L11.5264 14.9318C11.4816 14.8998 11.4382 14.8661 11.3962 14.8306L11.3916 14.8268L11.3796 14.8168L11.3797 14.8168L11.376 14.8138L8.49989 12.4396C8.21709 12.199 7.92629 11.9678 7.62798 11.7467L7.61777 11.7391L7.60737 11.7318C7.37035 11.5653 7.19265 11.475 7.01914 11.4255L7.01915 11.4254L7.01109 11.4232C6.67692 11.3308 6.32392 11.3308 5.98976 11.4232L5.98975 11.4232L5.9817 11.4255C5.8082 11.475 5.6305 11.5653 5.39348 11.7318L5.39347 11.7318L5.38994 11.7343C5.15761 11.8991 4.88375 12.1241 4.50737 12.4344L4.50667 12.4349L1.62467 14.8149L1.62466 14.8149L1.62123 14.8178L1.60923 14.8278L1.60922 14.8278L1.60469 14.8316C1.56255 14.8671 1.51901 14.901 1.47417 14.933L1.46689 14.9381C1.41218 14.9763 1.34768 14.9981 1.281 15.0009L1.27806 15.001C1.23145 15.0031 1.18494 14.9949 1.14181 14.9771C1.10092 14.9602 1.064 14.9351 1.03336 14.9033C1.02314 14.8909 1.01684 14.8781 1.01233 14.8642C1.01023 14.8578 1.00878 14.8519 1.00778 14.8469L1.00331 14.8066C1.00251 14.7994 1.00117 14.7818 1.00047 14.7545C0.999815 14.729 0.99994 14.7043 1.00027 14.6855L1.00042 14.6768V14.668V1.446C1.00042 1.41663 1.00046 1.38926 1.00114 1.36055C1.00183 1.33172 1.00301 1.31022 1.00425 1.29627C1.00849 1.25104 1.01529 1.22298 1.02923 1.19748C1.05918 1.14396 1.11393 1.08765 1.19683 1.04847C1.2571 1.02047 1.32089 1.00986 1.38054 1.00518C1.43733 1.00107 1.51053 1 1.56742 1H11.4334C11.4652 1 11.4982 1.00002 11.5333 1.00069C11.5682 1.00136 11.5977 1.00256 11.6204 1.00418C11.68 1.00887 11.7438 1.01948 11.804 1.04748C11.8864 1.08643 11.941 1.1423 11.9711 1.19553C11.9876 1.22628 11.9933 1.25611 11.9959 1.28705Z" stroke="black" stroke-width="2"/>
</svg>
