<svg width="14" height="16" viewBox="0 0 14 16" fill="none" xmlns="http://www.w3.org/2000/svg">
<path d="M6.4785 0.07338L6.3609 0.11005C6.1202 0.19239 5.9577 0.30176 5.5961 0.59815L1.06183 4.37535C0.79804 4.59715 0.70369 4.68573 0.58004 4.82962C0.53369 4.88356 0.49071 4.93875 0.45041 4.99635C0.28389 5.23436 0.1601 5.50071 0.0848298 5.783C0.0179398 6.0339 0.00215981 6.2432 0.000209808 6.6428L0 14.6818C0.00167 14.9519 0.0194301 15.1016 0.13136 15.3263C0.24708 15.5585 0.43162 15.7471 0.65842 15.8654C0.81163 15.9452 0.95775 15.9804 1.11447 15.9935L1.20199 15.9987C1.21691 15.9992 1.23282 15.9995 1.25095 15.9997L4.1885 16C4.39253 15.998 4.52255 15.9807 4.71797 15.8787C4.92127 15.7731 5.0876 15.603 5.1919 15.3941C5.2635 15.2503 5.2945 15.1159 5.3056 14.9771L5.3097 14.9052C5.3103 14.8817 5.3104 14.8552 5.3104 14.8156L5.3107 11.4305C5.3124 10.8434 5.3324 10.6556 5.363 10.594C5.4093 10.5012 5.4832 10.4257 5.574 10.3784L5.597 10.3687C5.6777 10.3412 5.8723 10.3274 6.4537 10.325L7.6784 10.3253C8.2047 10.3292 8.3671 10.3475 8.4263 10.3784C8.5171 10.4257 8.5909 10.5011 8.6372 10.594C8.6705 10.6607 8.6868 10.8329 8.6895 11.4933L8.69 14.8532C8.6918 15.0612 8.7087 15.1937 8.8078 15.393C8.9128 15.6032 9.0791 15.7731 9.2836 15.8794C9.4228 15.952 9.5545 15.9837 9.6905 15.9951L9.7608 15.9993L12.7108 16C12.975 15.9983 13.1215 15.9801 13.3413 15.8657C13.5687 15.7471 13.7533 15.5584 13.869 15.3261C13.9467 15.1702 13.9811 15.0208 13.9939 14.8607L13.9982 14.7935C13.9991 14.7717 13.9997 14.749 14 14.7212L13.9998 6.6288C13.997 6.188 13.982 6.0327 13.9154 5.78297C13.8402 5.50082 13.7164 5.23445 13.5499 4.99644C13.5095 4.93874 13.4666 4.88355 13.4202 4.8296L13.3599 4.7614C13.2504 4.6416 13.1378 4.54187 12.8688 4.31701L8.4041 0.59814C7.987 0.25617 7.8348 0.16316 7.5218 0.07338C7.1806 -0.02446 6.8197 -0.02446 6.4785 0.07338Z" fill="black"/>
</svg>
