<svg width="19" height="18" viewBox="0 0 19 18" fill="none" xmlns="http://www.w3.org/2000/svg">
<path d="M18.7834 6.76836C18.6604 6.39118 18.3562 6.10081 17.9733 5.99617L13.1486 4.67947L10.4048 0.497644C9.97015 -0.165881 8.87079 -0.165881 8.4361 0.497644L5.69288 4.67947L0.867657 5.99617C0.484722 6.10081 0.180558 6.39118 0.0575123 6.76836C-0.0649582 7.14555 0.010939 7.55953 0.258755 7.86887L3.38836 11.7707L3.14975 16.7661C3.13077 17.1628 3.31304 17.5417 3.63388 17.7752C3.95414 18.0086 4.37158 18.0632 4.74301 17.9235L9.42047 16.1532L14.0985 17.9235C14.2336 17.9747 14.3751 18 14.5154 18C14.7603 18 15.0035 17.9235 15.2076 17.7752C15.5285 17.5417 15.7107 17.1628 15.6918 16.7661L15.4531 11.7707L18.5822 7.86887C18.83 7.55953 18.9059 7.14555 18.7834 6.76836ZM13.3366 10.6449C13.1573 10.8685 13.0658 11.1509 13.0791 11.4378L13.2533 15.086L9.83733 13.7929C9.70278 13.7417 9.56191 13.7164 9.42047 13.7164C9.27902 13.7164 9.13815 13.7417 9.00361 13.7929L5.58823 15.0854L5.76245 11.4378C5.77625 11.1509 5.68425 10.8685 5.50486 10.6449L3.21932 7.79585L6.74279 6.83449C7.01993 6.75859 7.2597 6.58437 7.41724 6.34403L9.42047 3.29032L11.4243 6.34403C11.5818 6.58437 11.8216 6.75859 12.0987 6.83449L15.6216 7.79585L13.3366 10.6449Z" fill="black"/>
</svg>
